<?xml version="1.0" encoding="UTF-8" standalone="no"?>
<!-- Created with Inkscape (http://www.inkscape.org/) -->

<svg
   xmlns:dc="http://purl.org/dc/elements/1.1/"
   xmlns:cc="http://creativecommons.org/ns#"
   xmlns:rdf="http://www.w3.org/1999/02/22-rdf-syntax-ns#"
   xmlns:svg="http://www.w3.org/2000/svg"
   xmlns="http://www.w3.org/2000/svg"
   xmlns:sodipodi="http://sodipodi.sourceforge.net/DTD/sodipodi-0.dtd"
   xmlns:inkscape="http://www.inkscape.org/namespaces/inkscape"
   width="1000"
   height="733.07599"
   viewBox="0 0 1000 733.07593"
   id="svg2"
   version="1.1"
   inkscape:version="0.92.2 (5c3e80d, 2017-08-06)"
   sodipodi:docname="Marvel_Comics_(1990).svg">
  <defs
     id="defs4" />
  <sodipodi:namedview
     id="base"
     pagecolor="#ffffff"
     bordercolor="#666666"
     borderopacity="1.0"
     inkscape:pageopacity="0.0"
     inkscape:pageshadow="2"
     inkscape:zoom="0.70710678"
     inkscape:cx="528.7741"
     inkscape:cy="244.50188"
     inkscape:document-units="px"
     inkscape:current-layer="layer1"
     showgrid="false"
     inkscape:window-width="1366"
     inkscape:window-height="705"
     inkscape:window-x="-8"
     inkscape:window-y="-8"
     inkscape:window-maximized="1"
     showguides="false"
     units="px" />
  <metadata
     id="metadata7">
    <rdf:RDF>
      <cc:Work
         rdf:about="">
        <dc:format>image/svg+xml</dc:format>
        <dc:type
           rdf:resource="http://purl.org/dc/dcmitype/StillImage" />
        <dc:title></dc:title>
      </cc:Work>
    </rdf:RDF>
  </metadata>
  <g
     inkscape:label="Layer 1"
     inkscape:groupmode="layer"
     id="layer1"
     transform="translate(0,-319.28596)">
    <path
       inkscape:connector-curvature="0"
       id="path4136"
       d="m 27.340214,319.28627 v 5.96304 269.55997 457.55322 H 437.7713 V 913.77983 l 61.57545,138.33787 61.57543,-138.3495 v 138.5943 H 971.3533 V 594.80928 525.40152 H 916.39894 V 319.28627 H 843.43896 V 588.84624 H 832.17092 V 525.40152 H 769.9782 v -40.62326 h 62.19272 V 421.57815 H 769.9782 V 380.9549 h 62.19272 V 319.28627 H 710.36521 707.45357 646.99619 L 628.9207,457.47288 616.70928,319.28627 H 551.174 l 36.84978,269.55997 h -21.28414 c -0.21706,-0.0179 -2.92505,-0.2907 -6.51624,-4.18695 -3.73758,-4.055 -8.03762,-12.24044 -6.91809,-29.99574 l 0.0119,-0.18634 v -47.26764 c 0,-7.39671 -0.38116,-17.703 -4.77509,-27.9634 -3.37562,-7.88258 -9.37707,-15.5928 -18.77429,-21.51706 8.25816,-6.77873 13.76903,-15.40925 17.13213,-24.63251 4.4425,-12.18351 5.44942,-25.38149 5.31665,-37.77565 -0.23047,-21.51259 -3.1704,-40.37573 -13.78954,-54.34876 -10.61914,-13.97302 -28.65447,-21.68592 -55.28045,-21.68592 h -77.00716 v 248.57285 l -48.8341,-248.57285 h -72.65714 l -50.7616,258.38507 V 319.28627 h -74.4449 L 132.48572,428.52533 108.6976,319.28627 H 27.340482 Z m 11.926092,11.92609 h 59.822628 l 27.206396,124.94448 11.61746,0.15712 30.86924,-125.10169 h 53.17826 v 269.55997 h 19.54295 l 52.95698,-269.55997 h 53.03268 l 52.95697,269.55997 h 17.61544 V 331.21227 h 65.08107 c 24.43176,0 37.7222,6.37447 45.78266,16.98073 8.06049,10.60626 11.14812,26.81429 11.36705,47.25597 0.12463,11.626 -0.92197,23.47163 -4.60037,33.55961 -3.67842,10.08798 -9.71961,18.39832 -20.38735,24.14333 l -11.19234,6.02712 11.79216,4.7518 c 12.4484,5.01907 18.33893,12.22618 21.67427,20.01464 3.33531,7.78845 3.80842,16.33964 3.80842,23.26401 v 47.08129 l 0.0119,-0.37853 c -1.26029,19.98732 3.81229,32.06112 10.05098,38.82969 6.23872,6.76856 13.88271,7.9779 13.88271,7.9779 l 0.39017,0.0525 h 35.96462 l -36.84972,-269.56 h 40.94934 l 16.04316,181.55263 11.85039,0.25044 23.77648,-181.80304 h 38.85298 l -44.29193,269.55997 h 67.35797 V 331.21236 h 100.86516 v 37.81644 h -62.19272 v 64.47544 h 62.19272 v 39.34793 h -62.19272 v 64.47544 h 62.19272 v 63.44472 h 35.12023 V 331.21236 h 49.1078 v 206.11525 h 54.95436 v 57.48167 445.62712 H 572.84854 V 885.71741 l -11.41363,-2.4283 -62.08789,139.50269 -62.0937,-139.50269 -11.40785,2.4283 V 1040.4364 H 39.266574 V 594.80928 331.21236 Z m 668.187264,5.78836 v 251.84552 h -41.3861 z m -231.77265,33.15197 c -2.58576,-0.45746 -5.34516,-0.47242 -8.25161,0.0757 l -4.85663,0.91425 v 68.24313 l 4.4199,1.18211 c 8.7502,2.34461 17.63499,-1.41205 23.77648,-8.0536 6.14146,-6.64158 10.06264,-16.32094 10.06264,-27.41021 0,-6.35592 -2.29586,-14.78045 -7.38976,-22.48373 -3.82044,-5.77744 -10.00376,-11.09529 -17.76102,-12.46765 z m -160.6179,5.15362 -17.51064,132.92816 h 46.84835 L 326.8901,375.30631 Z m 159.43575,6.6793 c 3.69271,0.76225 6.44665,3.3583 8.99699,7.21505 3.56059,5.38451 5.40985,13.17186 5.40985,15.90341 0,8.2477 -2.99756,15.09545 -6.89477,19.31001 -2.44157,2.64038 -4.99223,3.8289 -7.51207,4.36746 z m -153.5193,39.76141 9.81806,74.56136 H 311.15559 Z M 87.081315,436.88755 75.347391,438.3725 V 600.77233 H 129.1895 Z m 87.058145,0 -42.10819,163.88478 h 53.84794 V 438.3725 Z m 298.16396,35.70258 c -1.39282,-0.0528 -2.82327,-0.0209 -4.28594,0.10495 l -5.4448,0.47167 v 127.6057 h 36.77407 13.3295 v -11.92609 c -1.23238,0 -1.50999,-0.14192 -2.53895,-1.53152 -1.02895,-1.38957 -2.18229,-4.15058 -2.96405,-7.68676 -1.56354,-7.07232 -1.84016,-16.95183 -1.84016,-25.3371 v -47.2094 c 0,-7.38693 -3.01188,-15.32637 -8.54275,-22.02368 -5.53091,-6.69727 -13.9908,-12.07114 -24.48692,-12.46765 z m 2.19535,12.63071 c 5.36615,0.94702 9.85471,3.50499 13.09658,7.43052 3.80177,4.6035 5.81164,10.60343 5.81164,14.4301 v 47.2094 c 0,8.58607 0.14819,18.96696 2.1255,27.91102 0.51121,2.31238 1.1529,4.53302 1.99738,6.64436 h -23.0311 z m -300.54566,0.30865 V 588.84624 H 147.41057 Z M 87.273483,485.55334 113.8102,588.8468 H 87.273483 Z m 206.540347,51.22164 -0.68132,5.18854 -7.70421,58.80938 h 71.10234 l -8.39138,-63.99792 z m 10.46446,11.92609 h 33.39654 l 5.25842,40.14573 h -43.91339 z"
       style="color:#000000;font-style:normal;font-variant:normal;font-weight:normal;font-stretch:normal;font-size:medium;line-height:normal;font-family:sans-serif;text-indent:0;text-align:start;text-decoration:none;text-decoration-line:none;text-decoration-style:solid;text-decoration-color:#000000;letter-spacing:normal;word-spacing:normal;text-transform:none;writing-mode:lr-tb;direction:ltr;baseline-shift:baseline;text-anchor:start;white-space:normal;clip-rule:nonzero;display:inline;overflow:visible;visibility:visible;opacity:1;isolation:auto;mix-blend-mode:normal;color-interpolation:sRGB;color-interpolation-filters:linearRGB;solid-color:#000000;solid-opacity:1;fill:#000000;fill-opacity:1;fill-rule:evenodd;stroke:none;stroke-width:11.92609215;stroke-linecap:butt;stroke-linejoin:miter;stroke-miterlimit:4;stroke-dasharray:none;stroke-dashoffset:0;stroke-opacity:1;color-rendering:auto;image-rendering:auto;shape-rendering:auto;text-rendering:auto;enable-background:accumulate" />
    <path
       inkscape:connector-curvature="0"
       id="path4202"
       d="M 33.300663,325.248 V 594.80797 1046.398 H 431.80566 V 885.7161 l 67.53847,151.7382 67.5385,-151.7382 v 160.6819 h 398.505 V 594.80797 531.36325 H 910.43327 V 325.248 h -61.03386 v 269.55997 h -23.19416 v -63.44472 h -62.19272 v -52.54934 h 62.19272 v -51.27403 h -62.19272 v -52.54934 h 62.19272 V 325.248 H 713.41399 V 594.80797 H 659.04196 L 703.3397,325.248 H 652.22873 L 627.77091,512.23958 611.25026,325.248 h -53.24234 l 36.84978,269.55997 h -28.74376 c 0,0 -21.14243,-2.7758 -18.76261,-40.51842 v -47.08129 c 0,-14.32112 -1.70158,-37.71164 -29.21544,-48.80497 24.01495,-12.93307 28.37793,-38.99942 28.12066,-63.01961 C 545.8072,353.42945 534.20153,325.248 483.14376,325.248 H 412.09964 V 594.80797 H 405.3563 L 352.39932,325.248 h -62.84491 l -52.95698,269.55997 h -8.67668 V 325.248 h -63.8116 L 132.12184,454.88602 103.89055,325.248 Z m 461.565367,79.85476 c 0,19.33696 -13.82189,33.05689 -26.3329,29.70458 v -58.72205 c 18.04779,-3.4037 26.3329,19.92999 26.3329,29.01747 z M 320.97684,376.08529 337.60235,502.27011 H 304.35136 Z M 81.307841,438.37119 121.50017,594.80797 H 81.307841 Z m 98.605709,0 v 156.43678 h -40.19232 z m 292.16595,40.17486 c 17.24522,0.65143 27.28792,17.32047 27.28792,28.5341 v 47.2094 c 0,16.97134 0.8573,40.51842 13.30623,40.51842 h -13.32952 -30.811 V 478.63341 c 1.21283,-0.10525 2.3967,-0.13089 3.54637,-0.0874 z m -173.03316,64.1901 h 43.86101 l 6.82488,52.07182 h -57.51076 z"
       style="fill:#ff0000;fill-opacity:1;fill-rule:evenodd;stroke:none;stroke-width:2.98152304px;stroke-linecap:butt;stroke-linejoin:miter;stroke-opacity:1"
       sodipodi:nodetypes="ccccccccccccccccccccccccccccccccccccscsscccccccccccccccccccccccccccccsscccccccccc" />
    <path
       inkscape:connector-curvature="0"
       id="path4138"
       d="m 938.27703,594.15708 c -5.96018,-0.0268 -12.27111,1.23652 -18.66365,4.03555 -21.61279,9.46332 -52.07331,30.84021 -77.04208,57.33024 -3.58367,-16.62703 -9.34507,-29.14984 -17.35923,-37.43791 -9.81383,-10.14925 -23.04371,-13.53358 -36.08108,-10.77889 -23.47597,4.96024 -39.27581,12.72764 -74.93405,43.71542 -19.98178,17.36457 -37.82569,41.76431 -53.03852,67.52681 2.09154,-20.76151 4.13388,-40.18693 7.58777,-74.7768 1.23089,-12.32726 1.11697,-21.2348 -0.43677,-28.11484 -1.55373,-6.88004 -5.12416,-12.18921 -10.21985,-14.58153 -5.09569,-2.39228 -10.3989,-1.8935 -15.43755,-0.89094 -5.03863,1.00257 -10.1082,2.66766 -15.13472,4.03553 -8.08872,2.20119 -17.40506,6.57229 -25.21483,13.28292 -7.80977,6.71063 -14.22127,16.12011 -14.66304,27.73049 -0.0298,0.76023 -0.32713,1.43912 -0.41345,2.16044 -1.54642,-2.88802 -3.28066,-5.60994 -5.52631,-7.89054 -9.11183,-9.25372 -22.52228,-10.09219 -38.04936,-8.58354 -14.30457,1.38987 -23.98442,6.81195 -30.28691,14.12148 -6.30249,7.3095 -9.38404,15.85458 -12.82869,23.67165 -4.13021,8.89284 -11.15209,24.39801 -19.19355,39.4819 -3.98469,-18.99216 -5.9787,-40.11601 -8.7466,-54.05758 l -0.0698,-0.35522 -0.11657,-0.3494 c -1.3899,-4.21617 -2.74936,-10.18611 -8.24576,-14.66304 -5.49644,-4.47694 -13.65967,-6.42954 -26.99096,-6.29498 -15.80389,0.15951 -25.94488,12.43095 -31.74272,23.27567 -5.50693,10.30063 -7.6595,19.8181 -7.87891,20.80662 -0.1291,0.32961 -10.939,29.45894 -19.80501,59.83428 -4.81218,-9.20217 -10.1904,-17.23693 -17.26021,-22.82729 -10.53996,-8.33434 -23.75287,-12.43554 -40.16321,-13.91184 -17.68359,-1.59082 -36.90326,5.18835 -54.65738,15.96164 -17.75412,10.77326 -34.06637,25.68675 -45.46822,41.63068 -22.58127,31.5768 -27.16379,76.73903 -33.78089,101.727 -24.64588,14.69918 -52.10374,21.27179 -76.60534,21.74997 -5.15638,0.10078 -8.85633,-1.45886 -12.013446,-4.22771 -3.157111,-2.76882 -5.686647,-6.94671 -7.290754,-11.99595 -3.208217,-10.09854 -2.375192,-23.4283 2.113852,-32.65701 4.860338,-9.99201 15.483918,-25.23632 26.711418,-38.81803 9.13953,-11.0559 18.27678,-20.07238 25.1566,-25.65159 2.78692,5.51636 6.00711,11.73796 11.91445,16.58472 4.10271,3.36617 9.83549,5.55088 16.24697,4.94981 6.41147,-0.60108 13.2963,-3.58302 21.34234,-9.23575 17.27783,-12.13843 20.04347,-32.29323 17.4524,-50.87223 -2.59108,-18.57901 -10.07216,-36.93544 -14.17971,-49.05536 -2.38394,-7.03419 -5.96792,-12.5003 -10.77308,-16.09557 -4.80516,-3.59527 -10.62784,-5.07145 -16.45079,-4.94978 -11.64589,0.2433 -23.80103,5.99644 -36.34313,13.64977 -24.22108,14.78001 -57.196512,34.24372 -98.716363,92.28163 -19.706288,27.54614 -39.4308984,71.50375 -34.09534667,112.84367 5.25913977,40.74767 28.05105867,60.98744 44.67625867,74.45647 18.470189,14.96396 45.213452,18.11037 70.351131,16.16552 25.13768,-1.94485 48.72843,-8.96783 62.46058,-17.28359 12.05172,-7.29817 19.35539,-9.86676 24.73732,-15.93833 2.69097,-3.03579 4.33441,-7.02566 4.89156,-11.39598 0.0822,-0.6449 -0.0897,-1.65802 -0.0408,-2.32946 8.80123,7.40998 16.56299,13.49139 25.35459,16.96337 12.05401,4.76001 26.0341,5.3736 49.42806,3.5346 24.78324,-1.94783 46.085,-14.13958 61.69772,-28.69716 14.01098,-13.06405 23.31464,-27.65705 26.76382,-40.40778 2.39365,0.68411 8.18899,2.45105 16.66626,3.70362 3.7934,0.5605 9.45087,3.24697 16.46242,1.03656 3.5058,-1.10522 6.80876,-3.76453 9.14258,-7.51207 2.33381,-3.7475 4.01074,-8.56192 5.35159,-15.08811 3.68642,-17.94278 12.14097,-48.78389 20.11947,-71.35274 0.096,5.68144 0.001,11.963 0.006,25.67485 10e-4,6.3688 -0.8882,14.96885 4.16364,22.37308 2.52591,3.70213 6.83383,6.58827 12.11244,7.63434 5.2786,1.04607 11.4974,0.60713 19.35661,-1.28113 13.13516,-3.15586 22.09544,-11.16184 29.15721,-24.35299 6.76564,-11.1221 12.07177,-22.56998 17.56302,-33.67025 0.21109,10.31165 0.69687,20.48384 0.6231,27.3287 -0.0629,5.85347 -0.94275,11.73011 0.83856,17.84838 0.89064,3.05913 2.74297,6.22786 5.67768,8.44376 2.93472,2.2159 6.62152,3.4241 10.95361,3.93653 8.39767,0.99333 18.74102,-0.003 27.84113,-3.80841 4.55008,-1.90213 8.82251,-4.54701 12.11829,-8.34478 3.29574,-3.79777 5.46856,-8.89472 5.46224,-14.5524 -0.009,-7.75685 1.47343,-34.52266 3.48814,-59.99733 0.27877,-3.52428 0.61234,-6.27966 0.90844,-9.71905 0.51363,5.14766 1.10012,9.79973 1.54315,14.99494 1.07519,12.60773 1.96846,25.03674 2.55644,35.0329 0.58799,9.99618 0.8368,17.93025 0.73373,20.10781 -0.28504,6.02085 -1.29059,17.54426 2.4749,27.15982 1.88274,4.8078 5.75347,9.7096 11.75722,11.06425 6.00371,1.35466 12.51551,-0.64875 20.09615,-5.34578 6.53824,-4.05114 10.18789,-5.80496 13.63233,-7.83234 7.14972,-4.2083 10.8226,-11.27385 12.26383,-18.8092 1.17452,-6.14084 0.73868,-12.58299 0.47168,-18.61705 4.34846,4.81465 9.60554,9.71839 15.81024,14.28453 12.83919,9.44857 29.36186,17.23482 47.70437,17.31264 22.71262,0.0963 53.2701,-5.93655 72.63384,-19.26345 8.72879,-6.0075 17.43806,-11.82197 24.51023,-18.43651 7.07215,-6.61457 12.73716,-14.33463 13.86525,-23.88132 1.33533,-11.30062 0.82245,-19.48306 -1.60722,-25.76805 -2.4297,-6.28496 -7.58339,-10.49594 -12.98594,-11.50098 -10.8051,-2.01006 -20.43118,4.50076 -26.72306,9.91124 -10.96297,9.42721 -18.8406,16.88016 -39.12086,20.27668 -8.39528,1.40602 -13.24294,-1.98755 -15.99074,-8.84558 -2.7478,-6.85801 -2.28868,-17.71124 4.39658,-29.2853 12.41265,-21.4898 29.66842,-32.45418 41.74132,-39.51102 1.60818,2.23113 3.2258,4.45511 4.98475,6.75503 2.81217,3.67705 6.45151,7.45747 11.98432,10.80802 6.20727,3.75898 13.85758,5.2654 21.38894,4.39077 4.0501,-0.47037 8.09242,-1.77353 11.76303,-3.87834 0.51205,2.17231 0.97684,4.80786 1.72953,6.88314 1.7785,4.90386 4.85848,9.52248 10.13834,14.3544 7.53854,6.89903 18.81529,7.35667 30.61884,7.59358 11.80355,0.23673 24.22809,-0.72499 32.29013,-0.98999 7.97018,-0.26207 13.23471,0.39848 15.60058,1.22291 1.07034,0.37298 1.33092,0.64881 1.39178,0.70462 0.0382,1.5692 -0.41646,2.94914 -1.97994,4.85663 -1.59151,1.94166 -4.32133,4.14629 -7.86145,6.31242 -7.08022,4.3323 -17.22873,8.49955 -27.26462,12.75883 -5.59862,2.37607 -12.41208,4.59587 -18.09877,4.79256 -8.92603,0.30874 -18.47647,2.39861 -25.0343,9.75403 -6.55786,7.35538 -8.83264,18.88192 -5.91066,34.86402 2.04237,11.17099 4.93144,19.08839 9.36967,24.73731 4.43824,5.64891 10.77096,8.49051 16.96326,8.83392 12.38453,0.68683 24.66349,-5.58463 38.53267,-9.35802 15.41692,-4.19449 40.82689,-15.04771 62.55375,-31.57385 21.72687,-16.52616 40.25095,-39.37092 37.60678,-67.07845 -2.46688,-25.85013 -11.58867,-39.14552 -22.83309,-44.6879 -11.24443,-5.54238 -22.99396,-3.47538 -28.72629,-3.55222 -5.10598,-0.0686 -9.91047,-0.40528 -14.5058,-0.87349 -3.38608,-0.345 -6.06987,-1.02911 -7.52951,-1.8518 -1.45963,-0.82269 -1.97171,-1.30343 -2.39338,-3.40081 -0.1789,-0.88993 -0.003,-1.90242 1.40343,-3.78514 1.40677,-1.88268 3.9823,-4.16167 7.08693,-6.2775 6.20923,-4.23162 14.3724,-7.90116 19.3508,-9.99276 4.57541,-1.9223 9.16938,-3.05847 13.48671,-4.35582 4.31736,-1.29732 8.76607,-2.58528 12.10081,-6.69677 3.80576,-4.69229 4.42351,-10.49458 3.71525,-15.21042 -0.70827,-4.71585 -2.53838,-8.75754 -4.13454,-11.7805 -6.66907,-12.63084 -20.61655,-23.92864 -38.49191,-24.00943 z m -0.0525,11.92609 c 12.76963,0.0578 23.18728,8.5443 27.99835,17.65622 1.24533,2.35853 2.49986,5.39107 2.88835,7.9779 0.38853,2.5868 0.11509,4.31566 -1.18795,5.92229 -0.33402,0.41184 -2.419,1.63921 -6.26585,2.79518 -3.84682,1.15593 -9.04749,2.41088 -14.67467,4.77508 -5.22426,2.19491 -13.92863,6.016 -21.44717,11.13996 -3.75928,2.56196 -7.2623,5.43048 -9.9229,8.99114 -2.66059,3.56068 -4.54264,8.28669 -3.54055,13.27126 1.02764,5.11156 4.34449,9.25373 8.22831,11.44276 3.88382,2.18906 8.05808,2.90552 12.17648,3.32511 4.85735,0.49488 10.02499,0.85764 15.55401,0.93173 7.83488,0.10495 16.57363,-1.13772 23.60761,2.32931 7.03395,3.46704 13.98069,11.50028 16.23532,35.12607 2.07738,21.76837 -12.8365,41.14896 -32.95397,56.45094 -20.11747,15.30201 -44.95824,25.87977 -58.45997,29.55318 -15.04951,4.09453 -27.59117,9.35891 -34.74757,8.96204 -3.57821,-0.19857 -5.69757,-1.05585 -8.23994,-4.29175 -2.54241,-3.23591 -5.16561,-9.39281 -7.01708,-19.51968 -2.55722,-13.98701 -0.31643,-20.97453 3.0747,-24.77806 3.39112,-3.80356 9.22307,-5.51746 16.54978,-5.77089 8.25849,-0.28563 16.12094,-3.09243 22.34979,-5.73594 9.91392,-4.2075 20.39073,-8.40146 28.82525,-13.56244 4.21727,-2.58048 7.96913,-5.39966 10.86043,-8.9271 2.89131,-3.52744 4.88854,-8.04156 4.71105,-12.93933 -0.0906,-2.49903 -1.06894,-5.23836 -2.84175,-7.26165 -1.77284,-2.02326 -4.07175,-3.30696 -6.58034,-4.18111 -5.01716,-1.74837 -11.24932,-2.16578 -19.91562,-1.88092 -8.57453,0.28175 -20.68539,1.20441 -31.66121,0.98414 -10.97585,-0.22034 -20.72245,-2.56149 -22.804,-4.46647 -4.34032,-3.97208 -5.78663,-6.32378 -6.98213,-9.62007 -1.1955,-3.29631 -1.95621,-7.97879 -3.72691,-15.08233 l -2.30018,-9.22409 7.37811,-8.65339 c 24.68161,-28.95548 59.50821,-53.29398 81.00192,-62.70515 4.97429,-2.17804 9.57549,-3.0538 13.8303,-3.03394 z m -285.20131,5.78836 c 1.33188,0.62528 2.58394,1.68557 3.65121,6.41143 1.06723,4.72587 1.37206,12.66468 0.2096,24.30639 -4.78219,47.8928 -8.65837,81.12545 -10.55179,103.9282 l 11.24475,3.22029 c 17.45372,-33.88925 39.92218,-68.41245 64.4405,-89.71937 35.13868,-30.53622 47.3495,-36.35198 69.57664,-41.04835 9.81416,-2.07365 17.82954,-0.0558 25.04595,7.4072 7.21645,7.46308 13.40594,21.14645 16.30521,42.3819 l 1.31023,9.59678 -6.59778,9.34636 c -2.57109,3.64196 -6.78532,5.7185 -11.69896,6.28916 -4.91367,0.57064 -10.28498,-0.58998 -13.83034,-2.73694 -4.2198,-2.55544 -6.40714,-4.87286 -8.68833,-7.85563 -2.2812,-2.98275 -4.58445,-6.77617 -8.30402,-11.21566 l -3.22025,-3.84917 -4.34417,2.52147 c -11.47758,6.66436 -34.93507,19.35593 -50.65679,46.57464 -8.161,14.12899 -9.59523,28.57695 -5.14197,39.69153 4.45329,11.11461 15.90115,18.3651 29.03491,16.16546 22.77782,-3.81483 34.08718,-13.67428 44.92085,-22.99035 4.60642,-3.96113 13.27558,-7.88279 16.77106,-7.23252 1.74774,0.32514 2.74217,0.71563 4.04137,4.07631 1.2992,3.36068 2.09613,9.86816 0.89097,20.06705 -0.66652,5.64054 -4.15637,10.94547 -10.17329,16.57307 -6.01692,5.62759 -14.33099,11.27239 -23.12427,17.32428 -15.68049,10.79192 -45.45914,17.24749 -65.82061,17.16123 -14.95535,-0.0635 -29.28548,-6.59835 -40.68733,-14.98916 -11.40185,-8.39081 -19.82039,-18.88881 -22.52448,-24.50439 l -6.6793,-13.87106 -4.40824,14.75622 c -1.83709,6.15213 -1.4684,12.66726 -1.19958,18.9606 0.26893,6.29334 0.51166,12.36748 -0.25045,16.35181 -1.09091,5.70374 -2.49521,8.35488 -6.6036,10.77308 -2.79362,1.64431 -6.94954,3.68707 -13.86524,7.97208 -6.18803,3.83412 -9.78804,4.16474 -11.18653,3.84918 -1.39848,-0.31554 -2.22374,-1.08578 -3.27851,-3.77932 -2.10958,-5.38702 -1.95931,-16.16048 -1.67129,-22.24494 0.18336,-3.87508 -0.13805,-11.24633 -0.73373,-21.37146 -0.59558,-10.12517 -1.49577,-22.63659 -2.57973,-35.34736 -2.16792,-25.42154 -4.74435,-50.74814 -7.89054,-61.64531 l -4.68776,-16.24116 -6.53955,15.59476 c -1.0345,2.46718 -1.42949,4.90294 -2.02067,8.47871 -0.59118,3.57577 -1.18185,7.99907 -1.76446,13.05582 -1.16521,10.11347 -2.31051,22.72806 -3.32509,35.55699 -2.02919,25.65785 -3.53281,51.76523 -3.52309,60.95235 0.003,2.81428 -0.84797,4.7648 -2.54478,6.72008 -1.69682,1.95525 -4.38684,3.77017 -7.71004,5.15941 -6.64639,2.77851 -15.69409,3.69655 -21.8373,2.96989 -2.93836,-0.34758 -4.43213,-1.0551 -5.1711,-1.61306 -0.73897,-0.55796 -1.05382,-1.01867 -1.41506,-2.25943 -0.72248,-2.48152 -0.43712,-7.86571 -0.36688,-14.38934 0.13447,-12.47642 0.15594,-37.54486 -1.1763,-50.37727 l -1.66545,-16.06063 -9.17167,13.28877 c -12.17624,17.64086 -18.55076,37.2625 -28.37107,53.34711 l -0.093,0.14549 -0.0814,0.15713 c -6.2188,11.66244 -11.1164,15.97819 -21.49376,18.47146 -6.8228,1.63924 -11.47365,1.72639 -14.24957,1.1763 -2.77592,-0.55009 -3.70445,-1.3822 -4.57711,-2.66125 -1.74533,-2.55806 -2.08904,-8.95175 -2.09056,-15.65299 -0.006,-16.40336 0.31718,-24.98797 -0.0238,-31.60298 -0.34049,-6.61499 -1.57714,-11.3585 -4.18695,-17.8076 l -5.06627,-12.50844 -5.84074,12.17067 c -10.6477,22.18894 -23.48507,68.05517 -28.61564,93.02703 -1.1681,5.68553 -2.59306,9.26303 -3.79095,11.18653 -1.19789,1.9235 -1.8628,2.21241 -2.60302,2.44577 -1.48047,0.46673 -5.43466,-0.61864 -11.13995,-1.46163 -8.92627,-1.31891 -18.14537,-4.03555 -18.14537,-4.03555 l -0.0239,-0.006 -0.0179,-0.006 c 0,0 -1.36504,-0.48307 -3.3484,-0.40763 -0.99166,0.0376 -2.32953,0.16815 -3.91907,1.12388 -1.58951,0.9557 -3.11017,3.11182 -3.43573,5.10121 -1.47701,9.02555 -10.34114,24.884 -24.41703,38.00857 -14.07592,13.12452 -33.08462,23.85174 -54.50016,25.53511 -22.80486,1.79249 -34.67157,0.98509 -44.1114,-2.74271 -9.43982,-3.72809 -17.57758,-10.96246 -32.02808,-23.3223 l -11.13412,-9.52108 1.32188,14.59318 c 0.56229,6.21022 0.66591,10.49019 0.32029,13.20129 -0.34563,2.7111 -0.84882,3.70127 -1.99157,4.99048 -2.2855,2.57842 -9.39134,6.02715 -21.98873,13.65567 -10.91696,6.61093 -33.7832,13.77702 -57.20215,15.58889 C 91.571981,958.014 67.658974,954.48537 53.066094,942.66274 36.740586,929.4364 17.489702,912.96707 12.710715,875.93962 8.0081403,839.50401 26.329605,797.20648 44.674738,771.563 c 40.536808,-56.66375 70.843392,-74.14875 95.234032,-89.03221 11.76379,-7.17841 22.80237,-11.7503 30.38009,-11.90862 3.78887,-0.0793 6.59022,0.72373 9.05522,2.56804 2.46499,1.84434 4.79641,4.97602 6.6269,10.37711 4.3213,12.75066 11.36226,30.39155 13.66143,46.87747 2.29916,16.48588 0.32327,30.46356 -12.49678,39.47023 -7.0029,4.91984 -12.15793,6.79331 -15.60058,7.11606 -3.44265,0.32275 -5.38241,-0.49928 -7.57027,-2.29437 -4.37574,-3.59017 -8.01764,-12.29049 -12.58413,-19.76424 l -3.12128,-5.11868 -5.1012,3.15624 c -9.49359,5.87246 -21.37647,18.32983 -33.01804,32.4124 -11.64157,14.0826 -22.527281,29.45518 -28.242941,41.20557 -6.086955,12.51375 -6.990884,28.16246 -2.760237,41.47928 2.115322,6.65843 5.594148,12.79607 10.790549,17.35342 5.196404,4.55732 12.195499,7.33463 20.113639,7.1801 27.12436,-0.5294 57.47054,-7.74817 84.71135,-24.60922 l 1.9741,-1.22287 0.62891,-2.23033 c 7.55337,-26.87408 12.27138,-72.0638 32.53471,-100.3993 10.30033,-14.40359 25.63304,-28.4666 41.96261,-38.37545 16.32956,-9.90885 33.6323,-15.5174 47.40154,-14.27869 15.04253,1.35322 25.57085,4.86274 33.83331,11.39615 8.26245,6.53344 14.64923,16.468 20.28252,31.80099 l 6.63854,18.05801 4.74015,-18.64618 c 8.77122,-34.50391 23.99195,-73.46657 23.99195,-73.46657 l 0.17472,-0.44258 0.099,-0.46586 c 0,0 2.0596,-9.26959 6.93556,-18.38995 4.87592,-9.12036 11.75549,-16.87807 21.34234,-16.97488 12.05948,-0.12165 17.16939,1.8548 19.33914,3.62207 2.09341,1.70516 2.84196,4.27115 4.30922,8.7466 3.14888,16.04396 5.26048,45.95153 12.63653,69.69891 l 3.84336,12.38033 6.90062,-10.97693 c 12.32794,-19.61812 22.03644,-43.39389 27.07828,-54.23807 l 0.0239,-0.0525 0.0298,-0.0581 c 3.61936,-8.21353 6.48248,-15.51814 10.94195,-20.69013 4.45946,-5.17202 10.36464,-8.86338 22.40799,-10.03354 14.42032,-1.4011 23.23146,-0.17144 28.40017,5.07792 3.67348,3.73063 7.16872,13.19989 10.06264,24.13171 l 11.71065,-1.0715 c 0.78086,-10.09801 4.19074,-14.94256 4.58293,-25.24978 0.28533,-7.4979 4.37962,-13.86104 10.51103,-19.12948 6.13141,-5.26847 14.19163,-9.08294 20.57367,-10.81968 5.39086,-1.46703 10.3492,-3.06154 14.33692,-3.85502 3.98773,-0.79347 6.7101,-0.6311 8.04198,-0.006 z M 309.52499,762.71796 c -9.63601,0.45304 -19.34586,6.49047 -28.55739,14.17386 -9.21153,7.68341 -17.50147,17.16734 -21.5811,26.82789 l -0.0757,0.18635 -0.064,0.18634 c -4.26044,12.32702 -8.20493,25.65499 -8.0769,37.62426 0.064,5.98463 1.17007,11.80176 4.39075,16.73031 3.22068,4.92854 8.6399,8.52504 15.36766,9.91705 13.53084,2.79965 26.59996,-3.48713 36.66923,-12.66566 10.06926,-9.1785 17.6502,-21.46154 20.53291,-33.513 l 0.0119,-0.0408 0.0119,-0.0408 c 2.18439,-9.73998 3.28797,-21.37659 2.29437,-31.93491 -0.99359,-10.55832 -3.76587,-20.91214 -12.64818,-25.73311 -2.63489,-1.43 -5.52238,-1.84735 -8.27489,-1.71786 z m 0.56488,11.90862 c 1.16423,-0.0549 1.76873,0.15444 2.02067,0.29129 2.66518,1.44658 5.62974,7.50581 6.46385,16.36928 0.83289,8.85056 -0.14341,19.61678 -2.05561,28.16141 -2.18215,9.07602 -8.69821,19.91076 -16.95741,27.43934 -8.27099,7.53929 -17.7704,11.54815 -26.21645,9.80059 -4.2607,-0.88157 -6.29006,-2.45683 -7.79738,-4.76346 -1.50732,-2.30662 -2.40302,-5.78785 -2.45161,-10.3305 -0.0964,-9.01254 3.26993,-21.5251 7.33152,-33.32087 2.84075,-6.66212 10.11106,-15.49104 18.1803,-22.22165 8.10045,-6.75664 17.40951,-11.23381 21.48212,-11.42529 z"
       style="color:#000000;font-style:normal;font-variant:normal;font-weight:normal;font-stretch:normal;font-size:medium;line-height:normal;font-family:sans-serif;text-indent:0;text-align:start;text-decoration:none;text-decoration-line:none;text-decoration-style:solid;text-decoration-color:#000000;letter-spacing:normal;word-spacing:normal;text-transform:none;writing-mode:lr-tb;direction:ltr;baseline-shift:baseline;text-anchor:start;white-space:normal;clip-rule:nonzero;display:inline;overflow:visible;visibility:visible;opacity:1;isolation:auto;mix-blend-mode:normal;color-interpolation:sRGB;color-interpolation-filters:linearRGB;solid-color:#000000;solid-opacity:1;fill:#000000;fill-opacity:1;fill-rule:evenodd;stroke:none;stroke-width:11.92609215;stroke-linecap:butt;stroke-linejoin:miter;stroke-miterlimit:4;stroke-dasharray:none;stroke-dashoffset:0;stroke-opacity:1;color-rendering:auto;image-rendering:auto;shape-rendering:auto;text-rendering:auto;enable-background:accumulate" />
    <path
       style="fill:#ffff00;fill-opacity:1;fill-rule:evenodd;stroke:none;stroke-width:1.19260919;stroke-linecap:butt;stroke-linejoin:miter;stroke-miterlimit:4;stroke-dasharray:none;stroke-opacity:1"
       d="m 938.25112,600.11747 c -5.1075,-0.0239 -10.56357,1.04621 -16.24697,3.53474 -22.73361,9.95409 -57.76242,34.5162 -83.15072,64.30072 -6.00839,-44.00817 -25.63898,-59.64289 -48.49053,-54.81458 -22.85156,4.8283 -36.85687,11.61989 -72.25533,42.38187 -25.54566,22.1997 -48.18538,57.22538 -65.83227,91.48967 1.87735,-22.60916 5.75347,-55.89124 10.54016,-103.82921 4.78669,-47.93797 -12.89953,-38.87417 -33.73432,-33.20439 -14.47076,3.93794 -34.75421,16.37301 -35.48129,35.48129 -0.33816,8.88726 -3.70883,13.86405 -4.57127,25.01685 -2.93844,-11.09997 -6.15279,-21.27883 -11.57669,-26.78713 -7.14027,-7.25145 -18.25398,-8.28559 -33.22767,-6.8307 -26.34796,2.56002 -31.16586,18.22778 -38.22989,34.25838 -5.20058,11.18564 -14.80428,34.61307 -26.72306,53.58006 -7.07382,-22.77433 -9.18369,-52.56178 -12.52589,-69.39611 -2.96951,-9.00784 -4.12166,-17.12053 -29.51243,-16.86424 -25.39077,0.25641 -34.04294,40.0584 -34.04294,40.0584 0,0 -15.30705,39.11356 -24.21903,74.1712 -11.70167,-31.8503 -27.7292,-44.24592 -59.18207,-47.07545 -31.45284,-2.82952 -73.0427,24.77571 -94.74488,55.12324 -21.70218,30.34752 -26.20142,76.54804 -33.42565,102.25109 -26.19855,16.21591 -55.54589,23.20791 -81.69491,23.71825 -26.149018,0.51038 -33.240228,-35.7043 -22.664229,-57.44673 10.575998,-21.74243 43.015799,-61.24481 59.036479,-71.15473 8.11469,13.28089 14.17076,37.85795 44.26864,16.71284 30.09787,-21.14511 9.48288,-68.26707 1.05402,-93.13765 -8.42885,-24.87059 -30.50873,-19.04782 -54.81461,-4.21609 C 112.4979,692.2708 80.856897,710.74515 39.828568,768.096 20.802858,794.69079 1.7798194,837.81838 6.7988825,876.70614 c 5.0190635,38.88765 26.0404645,57.2422 42.5158175,70.58988 33.063069,26.7866 101.32023,13.34262 125.96935,-1.58378 24.64912,-14.9267 28.81123,-12.04118 26.50759,-37.4846 28.7931,24.62768 34.28483,31.10563 80.48365,27.47414 46.1988,-3.6312 80.62045,-45.83713 84.33284,-68.52253 0.30754,-1.87925 3.16205,-1.05403 3.16205,-1.05403 0,0 9.47358,2.81256 18.97227,4.21606 9.49868,1.40349 19.22444,7.5592 24.24234,-16.86424 5.01791,-24.42345 18.11762,-70.73434 28.1556,-91.65271 5.01373,12.38939 3.76235,14.21668 3.77347,47.17444 0.003,13.07004 -1.08619,29.98714 28.2779,22.93211 11.77576,-2.82926 18.71532,-9.00274 25.36042,-21.46464 10.31514,-16.8951 16.66385,-36.36778 28.19054,-53.06762 1.24439,11.98578 1.28056,37.3188 1.14717,49.69594 -0.13328,12.37713 -2.32947,22.52818 12.21142,24.24816 14.54089,1.71998 38.77298,-3.83353 38.75399,-20.77749 -0.0179,-16.94397 5.98445,-105.74204 10.17328,-115.73199 5.25371,18.19671 11.54991,104.31967 10.9769,116.42498 -0.57302,12.10531 -2.30505,44.58901 25.2323,27.52668 6.72697,-4.16808 10.62975,-6.06636 13.74878,-7.9022 5.62906,-3.31325 8.16765,-8.17161 9.43372,-14.79116 1.9676,-10.28739 -1.47225,-25.41197 1.31026,-34.73009 6.85303,14.23161 35.25973,42.72397 68.55756,42.86521 21.53706,0.0912 51.70512,-6.14999 69.22723,-18.20942 17.52209,-12.05939 34.0419,-22.92037 35.83651,-38.10759 5.08102,-42.99899 -20.61151,-31.50593 -31.50981,-22.13432 -10.8983,9.37164 -20.4918,18.02784 -42.02084,21.63352 -21.52904,3.60567 -32.5898,-21.29085 -17.74355,-46.99391 14.84626,-25.70305 36.8287,-37.63123 48.49051,-44.40257 6.81683,8.13628 8.71884,14.43475 18.47146,20.34073 9.75262,5.90598 26.04283,5.33666 33.48972,-5.21182 3.41909,13.71649 2.8475,18.85661 12.46765,27.6606 9.62012,8.80402 42.05057,5.58979 58.68711,5.04298 16.63651,-0.54681 22.98611,2.16241 23.1825,7.58189 0.47123,13.00436 -20.81902,21.25531 -40.76884,29.72209 -5.91373,2.50979 -13.25167,5.02306 -20.22426,5.26424 -16.25273,0.56216 -30.76392,7.61442 -25.28472,37.58349 7.78771,42.59571 28.51642,27.39922 57.43507,19.53131 28.91866,-7.86792 100.50876,-42.8523 95.78725,-92.32823 -4.72151,-49.47593 -32.13397,-42.66586 -45.70115,-42.84774 -5.31751,-0.0712 -10.30357,-0.42108 -15.02991,-0.90262 -7.50453,-0.76458 -13.71456,-2.80132 -15.16385,-10.01023 -2.36205,-11.74902 21.17325,-22.44237 31.37588,-26.72887 10.20262,-4.28651 19.59528,-4.78812 23.26405,-9.31145 5.10887,-6.29891 1.78161,-15.06402 -1.05985,-20.44555 -5.74008,-10.87138 -17.92265,-20.76646 -33.24514,-20.83572 z M 309.80779,768.6725 c 1.95838,-0.0921 3.70436,0.21825 5.14778,1.00162 11.54747,6.26755 11.48014,32.83208 7.3781,51.12262 -5.05556,21.13539 -28.21983,46.27691 -50.19672,41.7297 -21.9769,-4.54718 -15.6219,-32.2797 -7.25581,-56.48588 6.89674,-16.3315 31.21801,-36.72354 44.92665,-37.36806 z"
       id="path4204"
       inkscape:connector-curvature="0" />
  </g>
</svg>
